<mxfile host="app.diagrams.net" agent="Mozilla/5.0 (X11; Ubuntu; Linux x86_64; rv:137.0) Gecko/20100101 Firefox/137.0" version="26.2.13">
  <diagram id="C5RBs43oDa-KdzZeNtuy" name="Page-1">
    <mxGraphModel dx="1362" dy="795" grid="1" gridSize="10" guides="1" tooltips="1" connect="1" arrows="1" fold="1" page="1" pageScale="1" pageWidth="827" pageHeight="1169" math="0" shadow="0">
      <root>
        <mxCell id="WIyWlLk6GJQsqaUBKTNV-0" />
        <mxCell id="WIyWlLk6GJQsqaUBKTNV-1" parent="WIyWlLk6GJQsqaUBKTNV-0" />
        <mxCell id="LmF54CyCkG3F-yZB505p-3" value="" style="edgeStyle=orthogonalEdgeStyle;rounded=0;orthogonalLoop=1;jettySize=auto;html=1;" edge="1" parent="WIyWlLk6GJQsqaUBKTNV-1" source="LmF54CyCkG3F-yZB505p-1" target="LmF54CyCkG3F-yZB505p-2">
          <mxGeometry relative="1" as="geometry" />
        </mxCell>
        <mxCell id="LmF54CyCkG3F-yZB505p-1" value="Inicio" style="ellipse;whiteSpace=wrap;html=1;" vertex="1" parent="WIyWlLk6GJQsqaUBKTNV-1">
          <mxGeometry x="360" y="60" width="80" height="60" as="geometry" />
        </mxCell>
        <mxCell id="LmF54CyCkG3F-yZB505p-5" value="" style="edgeStyle=orthogonalEdgeStyle;rounded=0;orthogonalLoop=1;jettySize=auto;html=1;" edge="1" parent="WIyWlLk6GJQsqaUBKTNV-1" source="LmF54CyCkG3F-yZB505p-2" target="LmF54CyCkG3F-yZB505p-4">
          <mxGeometry relative="1" as="geometry" />
        </mxCell>
        <mxCell id="LmF54CyCkG3F-yZB505p-2" value="Edad" style="shape=parallelogram;perimeter=parallelogramPerimeter;whiteSpace=wrap;html=1;fixedSize=1;" vertex="1" parent="WIyWlLk6GJQsqaUBKTNV-1">
          <mxGeometry x="350" y="170" width="100" height="50" as="geometry" />
        </mxCell>
        <mxCell id="LmF54CyCkG3F-yZB505p-17" value="" style="edgeStyle=orthogonalEdgeStyle;rounded=0;orthogonalLoop=1;jettySize=auto;html=1;" edge="1" parent="WIyWlLk6GJQsqaUBKTNV-1" source="LmF54CyCkG3F-yZB505p-4" target="LmF54CyCkG3F-yZB505p-15">
          <mxGeometry relative="1" as="geometry" />
        </mxCell>
        <mxCell id="LmF54CyCkG3F-yZB505p-20" value="" style="edgeStyle=orthogonalEdgeStyle;rounded=0;orthogonalLoop=1;jettySize=auto;html=1;" edge="1" parent="WIyWlLk6GJQsqaUBKTNV-1" source="LmF54CyCkG3F-yZB505p-4" target="LmF54CyCkG3F-yZB505p-19">
          <mxGeometry relative="1" as="geometry" />
        </mxCell>
        <mxCell id="LmF54CyCkG3F-yZB505p-4" value="Edad&amp;gt;=18" style="rhombus;whiteSpace=wrap;html=1;" vertex="1" parent="WIyWlLk6GJQsqaUBKTNV-1">
          <mxGeometry x="360" y="285" width="80" height="80" as="geometry" />
        </mxCell>
        <mxCell id="LmF54CyCkG3F-yZB505p-12" value="Fin" style="ellipse;whiteSpace=wrap;html=1;" vertex="1" parent="WIyWlLk6GJQsqaUBKTNV-1">
          <mxGeometry x="334" y="450" width="80" height="80" as="geometry" />
        </mxCell>
        <mxCell id="LmF54CyCkG3F-yZB505p-23" value="" style="edgeStyle=orthogonalEdgeStyle;rounded=0;orthogonalLoop=1;jettySize=auto;html=1;" edge="1" parent="WIyWlLk6GJQsqaUBKTNV-1" source="LmF54CyCkG3F-yZB505p-15" target="LmF54CyCkG3F-yZB505p-12">
          <mxGeometry relative="1" as="geometry" />
        </mxCell>
        <mxCell id="LmF54CyCkG3F-yZB505p-15" value="Es mayor de edad" style="shape=parallelogram;perimeter=parallelogramPerimeter;whiteSpace=wrap;html=1;fixedSize=1;" vertex="1" parent="WIyWlLk6GJQsqaUBKTNV-1">
          <mxGeometry x="520" y="430" width="140" height="60" as="geometry" />
        </mxCell>
        <mxCell id="LmF54CyCkG3F-yZB505p-18" value="Si" style="text;html=1;align=center;verticalAlign=middle;resizable=0;points=[];autosize=1;strokeColor=none;fillColor=none;" vertex="1" parent="WIyWlLk6GJQsqaUBKTNV-1">
          <mxGeometry x="526" y="298" width="30" height="30" as="geometry" />
        </mxCell>
        <mxCell id="LmF54CyCkG3F-yZB505p-22" value="" style="edgeStyle=orthogonalEdgeStyle;rounded=0;orthogonalLoop=1;jettySize=auto;html=1;" edge="1" parent="WIyWlLk6GJQsqaUBKTNV-1" source="LmF54CyCkG3F-yZB505p-19" target="LmF54CyCkG3F-yZB505p-12">
          <mxGeometry relative="1" as="geometry" />
        </mxCell>
        <mxCell id="LmF54CyCkG3F-yZB505p-19" value="Es menor de edad" style="shape=parallelogram;perimeter=parallelogramPerimeter;whiteSpace=wrap;html=1;fixedSize=1;" vertex="1" parent="WIyWlLk6GJQsqaUBKTNV-1">
          <mxGeometry x="111" y="440" width="120" height="60" as="geometry" />
        </mxCell>
        <mxCell id="LmF54CyCkG3F-yZB505p-21" value="NO" style="text;html=1;align=center;verticalAlign=middle;resizable=0;points=[];autosize=1;strokeColor=none;fillColor=none;" vertex="1" parent="WIyWlLk6GJQsqaUBKTNV-1">
          <mxGeometry x="231" y="288" width="40" height="30" as="geometry" />
        </mxCell>
      </root>
    </mxGraphModel>
  </diagram>
</mxfile>
